HIERARCHY
ROOT hip
{
	OFFSET 0.000000 0.000000 0.000000 
	CHANNELS 6 Xposition Yposition Zposition Xrotation Zrotation Yrotation
	JOINT abdomen
	{
		OFFSET 0.000000 3.402643 0.000000 
		CHANNELS 3 Xrotation Zrotation Yrotation
		JOINT chest
		{
			OFFSET 0.000000 8.438565 -0.680529 
			CHANNELS 3 Xrotation Zrotation Yrotation
			JOINT neck
			{
				OFFSET 0.000000 10.207942 -0.272212 
				CHANNELS 3 Xrotation Zrotation Yrotation
				JOINT head
				{
					OFFSET 0.000000 3.130431 0.000000 
					CHANNELS 3 Xrotation Zrotation Yrotation
					End Site
					{
						OFFSET 0.000000 3.130435 0.000000 
					}
				}
			}
			JOINT lCollar
			{
				OFFSET 3.470700 6.669187 -0.816635 
				CHANNELS 3 Yrotation Zrotation Xrotation
				JOINT lShldr
				{
					OFFSET 3.198488 0.000000 0.000000 
					CHANNELS 3 Zrotation Yrotation Xrotation
					JOINT lForeArm
					{
						OFFSET 10.139888 0.000000 0.000000 
						CHANNELS 3 Yrotation Zrotation Xrotation
						JOINT lHand
						{
							OFFSET 8.370511 0.000000 0.000000 
							CHANNELS 3 Zrotation Yrotation Xrotation
							End Site
							{
								OFFSET 4.083176 0.000000 0.000000 
							}
						}
					}
				}
			}
			JOINT rCollar
			{
				OFFSET -3.470700 6.669187 -0.816635 
				CHANNELS 3 Yrotation Zrotation Xrotation
				JOINT rShldr
				{
					OFFSET -3.198488 0.000000 0.000000 
					CHANNELS 3 Zrotation Yrotation Xrotation
					JOINT rForeArm
					{
						OFFSET -10.139888 0.000000 0.000000 
						CHANNELS 3 Yrotation Zrotation Xrotation
						JOINT rHand
						{
							OFFSET -8.370511 0.000000 0.000000 
							CHANNELS 3 Zrotation Yrotation Xrotation
							End Site
							{
								OFFSET -4.083176 0.000000 0.000000 
							}
						}
					}
				}
			}
		}
	}
	JOINT lThigh
	{
		OFFSET 5.308129 -1.633274 1.361059 
		CHANNELS 3 Xrotation Zrotation Yrotation
		JOINT lShin
		{
			OFFSET -2.041588 -20.007561 0.000000 
			CHANNELS 3 Xrotation Zrotation Yrotation
			JOINT lFoot
			{
				OFFSET 0.000000 -19.190928 -1.224953 
				CHANNELS 3 Xrotation Yrotation Zrotation
				End Site
				{
					OFFSET 0.000000 -2.449906 4.627600 
				}
			}
		}
	}
	JOINT rThigh
	{
		OFFSET -5.308129 -1.633274 1.361059 
		CHANNELS 3 Xrotation Zrotation Yrotation
		JOINT rShin
		{
			OFFSET 2.041588 -20.007561 0.000000 
			CHANNELS 3 Xrotation Zrotation Yrotation
			JOINT rFoot
			{
				OFFSET 0.000000 -19.190928 -1.224953 
				CHANNELS 3 Xrotation Yrotation Zrotation
				End Site
				{
					OFFSET 0.000000 -2.449906 4.627600 
				}
			}
		}
	}
}
MOTION
Frames: 19
Frame Time: 0.016667
-49.949100 47.634937 -11.120638 6.153110 -3.598166 21.890516 24.218563 6.124172 -11.561002 -6.098163 -0.389832 -3.652459 50.884300 10.200061 3.116470 -61.675018 -12.507376 26.112774 0.324482 -24.997768 6.927378 -8.704218 -33.354412 -8.687977 -132.524734 1.840110 -2.269909 4.446346 14.112430 -13.066118 -13.284099 24.994703 14.728081 3.314650 -37.372944 -4.359020 110.951958 -1.023649 -2.947676 -54.192345 -65.951607 28.507530 -14.677629 8.272312 52.242466 18.554245 -5.104293 -1.730067 -5.054793 -1.892897 -7.503145 -19.167347 -12.183298 -25.929523 22.449646 4.755438 2.143162 -1.715910 -10.081227 7.443176 
-50.255085 48.211422 -9.962191 6.732380 -3.491509 20.645174 24.039751 5.587213 -11.608334 -6.272993 -0.565286 -3.603725 50.884300 10.200061 3.116470 -61.808979 -12.224468 26.876764 0.705166 -24.212133 7.538395 -6.499938 -33.669643 -8.023052 -132.617218 1.840413 -2.340195 4.762645 14.479712 -12.093898 -13.120975 24.996668 14.699319 1.493274 -37.955471 -0.287512 111.032570 -0.950244 -2.961540 -54.554218 -65.616348 30.093584 -14.482333 8.001287 52.534328 16.332308 -5.131723 -1.673917 -2.644470 -1.780104 -7.798998 -16.892088 -10.601341 -26.633301 17.941574 4.919772 1.741095 -0.735729 -7.818134 9.547521 
-50.561535 48.783470 -8.809288 7.312803 -3.362552 19.399872 23.863823 5.040888 -11.656749 -6.448728 -0.731013 -3.555021 50.884300 10.200061 3.116470 -61.950737 -11.950731 27.639086 1.064797 -23.431334 8.133717 -4.288457 -34.003941 -7.377916 -132.709595 1.840938 -2.411026 5.080091 14.839272 -11.127175 -12.976321 24.994106 14.669752 -0.383405 -38.428776 3.819041 111.122864 -0.877367 -2.976718 -54.902794 -65.280182 31.672636 -14.287084 7.746443 52.843567 14.152771 -5.157220 -1.659675 -0.262346 -1.664105 -8.105409 -14.665854 -9.000116 -27.273144 13.468539 5.055458 1.329442 0.164002 -5.546545 11.606602 
-50.908436 48.968956 -8.140134 7.807496 -3.218902 18.232622 23.697781 4.363036 -11.566927 -6.625536 -0.906588 -3.418468 50.884300 10.200061 3.116470 -61.817364 -11.700808 28.184752 1.224497 -22.248371 8.442551 -2.480551 -34.054436 -6.386607 -132.709595 1.840938 -2.411026 5.422720 15.218946 -10.524037 -12.803065 24.999258 14.536610 -1.552578 -38.607391 6.926650 111.302010 -0.861695 -2.971520 -57.041466 -64.474342 35.082676 -14.199158 7.757575 52.739861 13.096455 -5.191447 -1.526015 -1.002864 -1.421865 -8.691150 -13.974364 -8.046685 -27.151308 11.618736 5.096593 1.140407 0.332265 -4.643217 11.172326 
-51.256416 49.152901 -7.475260 8.298691 -3.062356 17.066019 23.537441 3.694340 -11.478773 -6.803367 -1.082218 -3.272191 50.884300 10.200061 3.116470 -61.679737 -11.451739 28.728834 1.369794 -21.083748 8.742110 -0.673747 -34.108532 -5.405616 -132.709595 1.840938 -2.411026 5.787149 15.575912 -9.915668 -12.636374 24.992176 14.394714 -2.741661 -38.737835 10.048898 111.480736 -0.864760 -2.962419 -59.022835 -63.615253 38.336834 -14.130815 7.775158 52.654167 12.032870 -5.207486 -1.428377 -1.706318 -1.178823 -9.274754 -13.276384 -7.091924 -27.006289 9.781421 5.134632 0.951872 0.527647 -3.763503 10.747667 
-51.700977 49.205406 -7.173329 8.731653 -2.828701 15.790803 23.475271 2.987870 -11.304564 -6.981880 -1.257880 -3.135725 50.884300 10.200061 3.116470 -61.373489 -11.139489 29.143898 1.289273 -21.093386 8.680397 0.600072 -33.235916 -3.975722 -132.795837 1.914058 -2.268379 6.619762 15.044230 -9.281613 -12.348403 24.993374 14.252011 -3.056871 -38.792194 12.020266 111.741631 -0.847411 -2.937339 -61.441746 -62.567894 41.836315 -14.736299 8.770066 51.645927 12.774420 -5.233461 -1.502881 -1.111291 -0.516072 -8.626752 -13.310126 -6.425328 -26.217604 8.730048 5.155871 0.855743 0.540723 -3.194186 10.854166 
-52.145840 49.256733 -6.874030 9.155722 -2.580902 14.526578 23.409195 2.280612 -11.121853 -7.151977 -1.423829 -2.999062 50.884300 10.200061 3.116470 -61.053223 -10.828803 29.559864 1.219953 -21.111176 8.615165 1.892374 -32.368214 -2.548476 -132.882065 1.986756 -2.125267 7.438062 14.508196 -8.661301 -12.060298 24.993410 14.104786 -3.375188 -38.834751 13.981903 112.001541 -0.849192 -2.911049 -63.603355 -61.469757 45.062775 -15.390620 9.736403 50.635399 13.499137 -5.231988 -1.612334 -0.502127 0.181638 -7.963603 -13.326904 -5.748298 -25.399014 7.677074 5.161817 0.710722 0.542223 -2.585581 10.944018 
-52.617615 49.205761 -6.802270 9.308835 -2.347559 13.292299 23.279774 1.534513 -10.863278 -7.322648 -1.599579 -2.852904 50.884300 10.200061 3.116470 -60.589371 -10.719130 29.788822 1.139002 -22.198423 8.364461 3.023422 -30.528646 -1.185259 -132.799713 2.076887 -2.135775 7.994266 13.954295 -8.005721 -11.896592 24.995428 13.948761 -2.980108 -38.205421 14.609435 111.822746 -0.846572 -2.921855 -64.505272 -60.783718 46.424492 -16.669708 11.350249 48.643948 15.953256 -5.128810 -1.661056 0.335028 0.962835 -7.890625 -13.679047 -5.104718 -24.418682 7.494152 5.171508 0.656748 0.091994 -2.474492 11.200641 
-53.088985 49.153679 -6.731426 9.461320 -2.110621 12.059028 23.141829 0.796700 -10.606467 -7.494217 -1.775362 -2.706502 50.884300 10.200061 3.116470 -60.110172 -10.618129 30.017859 1.055888 -23.274294 8.113139 4.182499 -28.702074 0.175886 -132.717316 2.166985 -2.145893 8.548211 13.399858 -7.346493 -11.723561 24.998880 13.788754 -2.561095 -37.581829 15.209986 111.642967 -0.863324 -2.932129 -65.329117 -60.098198 47.684837 -18.017241 12.923919 46.578880 18.423307 -5.024514 -1.707976 1.162282 1.733195 -7.854415 -14.030698 -4.470377 -23.432806 7.329197 5.171962 0.555227 -0.375321 -2.305492 11.460112 
-53.525597 49.005074 -6.739197 9.531705 -1.851785 10.737794 23.188139 0.028828 -10.263671 -7.579229 -1.941421 -2.560102 50.884300 10.200061 3.116470 -59.076927 -11.014641 30.381615 0.993752 -24.150549 7.897466 4.410353 -25.923622 0.994112 -131.560272 2.083198 -2.222347 8.805309 13.396123 -6.672433 -11.504450 24.996508 13.577538 -1.074475 -37.142124 14.159330 110.673172 -0.872274 -3.014992 -63.994411 -60.510517 46.035637 -19.735928 14.751696 44.121758 21.423769 -4.914367 -2.154321 2.940549 2.995057 -8.099463 -14.672316 -4.057930 -22.416914 8.033669 5.153980 0.710294 -1.500190 -1.760606 11.598339 
-53.959908 48.856312 -6.752759 9.598053 -1.599255 9.417721 23.235167 -0.740684 -9.932569 -7.664317 -2.117247 -2.423829 50.884300 10.200061 3.116470 -58.047470 -11.425759 30.741213 0.926705 -25.000000 7.670576 4.664698 -23.142574 1.797340 -130.383423 2.014203 -2.291051 9.062300 13.397863 -5.996841 -11.290284 24.992882 13.352990 0.407247 -36.675449 13.095111 109.700836 -0.879966 -3.098720 -62.604385 -60.917740 44.306240 -21.562174 16.501610 41.550297 24.428020 -4.791030 -2.575527 4.733686 4.270627 -8.406751 -15.337907 -3.649674 -21.388401 8.772160 5.122458 0.857896 -2.601863 -1.199224 11.764753 
-54.193161 48.695240 -7.261182 9.112720 -1.373095 8.039232 23.649702 -1.454704 -9.426961 -7.663132 -2.283354 -2.277474 50.884300 10.200061 3.116470 -56.753922 -11.927997 30.952782 1.047588 -25.000000 7.426028 3.842013 -19.613825 1.391350 -127.538773 1.789084 -2.477757 8.682591 15.080094 -5.403214 -11.132867 24.997107 13.117935 2.953175 -35.352455 10.055503 108.186951 -0.737486 -3.081585 -60.744602 -61.905445 41.357651 -23.173605 18.055550 38.424843 27.606733 -4.655482 -2.857659 6.829340 4.949989 -9.064770 -16.800003 -3.677518 -20.212042 11.683139 5.077553 1.047110 -2.658114 -0.993923 11.933080 
-54.424973 48.531284 -7.771522 8.623834 -1.163966 6.661354 24.062929 -2.180350 -8.922883 -7.662012 -2.459222 -2.140891 50.884300 10.200061 3.116470 -55.465153 -12.439062 31.150026 1.169828 -25.000000 7.177281 3.008339 -16.091503 0.929808 -124.683342 1.551661 -2.655003 8.303596 16.775145 -4.814120 -10.975529 25.000000 12.878607 5.381886 -33.907482 7.126388 106.690933 -0.585831 -3.060775 -58.695755 -62.839584 38.209480 -24.881950 19.498718 35.228603 30.800058 -4.504443 -3.152196 8.928203 5.597047 -9.758448 -18.267759 -3.679875 -19.050180 14.617247 5.021480 1.254949 -2.714090 -0.776401 12.064497 
-54.534309 48.119999 -8.445705 7.749821 -1.011452 5.196053 24.590666 -3.016336 -8.127040 -7.476689 -2.713296 -1.936048 50.884300 10.200061 3.116470 -54.219368 -12.670015 30.808781 1.520103 -25.000000 7.146720 1.389738 -12.172013 -0.389985 -120.795212 1.338295 -2.625488 7.445781 19.096241 -4.209437 -10.851501 24.998098 12.742386 7.587522 -31.425085 4.105032 105.547523 -0.612168 -3.052768 -55.925652 -63.622044 34.226540 -26.659700 20.535892 31.274006 34.940010 -4.285391 -3.305285 9.305268 6.520838 -9.945836 -20.173721 -3.798098 -17.852312 18.944418 4.882380 1.739908 -3.246348 -0.469661 12.481306 
-54.642254 47.708324 -9.114300 6.866489 -0.877034 3.740543 25.103054 -3.845441 -7.321553 -7.302442 -2.967382 -1.741005 50.884300 10.200061 3.116470 -52.966213 -12.887531 30.442644 1.874819 -25.000000 7.124778 -0.300650 -8.295053 -1.803536 -116.904724 1.126924 -2.588081 6.598554 21.421482 -3.629773 -10.718105 24.997150 12.602203 9.554127 -28.843845 1.295864 104.411446 -0.629323 -3.045921 -52.959148 -64.314011 30.070683 -28.523209 21.460247 27.253668 39.095783 -4.051937 -3.425958 9.682326 7.417738 -10.147777 -22.054874 -3.874568 -16.628267 23.232624 4.738298 2.165980 -3.795745 -0.141081 12.901615 
-54.630219 47.262661 -9.300471 5.723496 -0.741642 2.197334 25.200283 -4.494555 -6.269732 -7.220133 -2.791968 -1.535188 50.884300 10.200061 3.116470 -51.622795 -12.954279 29.432384 2.096301 -25.000000 7.093916 -2.120409 -4.294257 -3.340245 -113.109329 0.949893 -2.687511 6.072527 23.439629 -3.224137 -10.428065 24.999403 12.313331 9.583359 -25.713787 -0.230583 104.331459 -0.646233 -3.042240 -50.594971 -64.557632 27.330341 -30.260157 22.220827 22.152647 43.649792 -3.860161 -3.825980 9.331100 8.765885 -9.851348 -22.727818 -3.659531 -15.350053 26.223148 4.524656 2.337567 -5.080400 0.131276 13.505973 
-54.617096 46.820248 -9.479730 4.572937 -0.634725 0.644492 25.263083 -5.135010 -5.216359 -7.137008 -2.616494 -1.320105 50.884300 10.200061 3.116470 -50.277153 -13.000003 28.407711 2.319069 -25.000000 7.062963 -4.047939 -0.344072 -4.988216 -109.304398 0.745714 -2.776538 5.575837 25.446127 -2.830482 -10.135817 24.990044 12.024046 9.506631 -22.582510 -1.701192 104.262077 -0.653597 -3.038007 -48.188919 -64.747955 24.560169 -32.050968 22.832306 16.988323 48.226246 -3.654789 -4.187205 8.927693 10.095128 -9.538053 -23.386574 -3.427073 -14.097366 29.176218 4.286493 2.510685 -6.374463 0.375864 14.109777 
-54.510754 46.658211 -9.061645 3.347194 -0.468692 -0.898487 24.607439 -5.504591 -3.944184 -7.321117 -2.021225 -0.918775 50.884300 10.200061 3.116470 -48.732395 -12.278716 26.440575 2.795981 -25.000000 7.398350 -5.490026 3.826798 -6.471077 -105.078796 0.552231 -2.770037 6.371519 26.022100 -2.345507 -9.734293 24.996803 11.771474 7.813542 -19.675514 -1.665704 105.410851 -0.738888 -3.006358 -46.465366 -64.379326 22.838089 -32.398613 23.306355 13.392890 50.239967 -3.558179 -4.272503 8.196593 10.700834 -8.957613 -22.018543 -3.153435 -12.787093 29.524906 4.256908 2.550919 -8.159747 0.735667 14.376189 
-54.403858 46.500088 -8.642326 2.113392 -0.321971 -2.451243 23.944824 -5.862813 -2.670277 -7.496973 -1.415958 -0.517903 50.884300 10.200061 3.116470 -47.222115 -11.505014 24.487059 3.274168 -25.000000 7.733342 -7.048110 7.972173 -8.049114 -100.846367 0.358393 -2.745969 7.177310 26.590212 -1.846887 -9.337054 24.999218 11.531096 6.140440 -16.761198 -1.711887 106.566063 -0.804623 -2.977297 -44.789268 -63.989098 21.167404 -32.757519 23.763443 9.776659 52.212250 -3.499788 -4.351533 7.457377 11.344706 -8.353930 -20.658236 -2.908499 -11.455074 29.870474 4.252638 2.586804 -9.926733 1.081973 14.660663 
